<svg version="1" xmlns="http://www.w3.org/2000/svg" width="1365.333" height="1365.333" viewBox="0 0 1024.000000 1024.000000"><path d="M632.5 257.9c-26.6 7.6-55.2 35.2-63.4 61.2-1.3 4.1-2.1 13.3-1.4 16 .7 2.4 2 1.7 13.9-7.2 10.3-7.7 22.7-20.5 35.3-36.3 13.3-16.8 13.8-17.2 7.7-5.4-9.8 19.1-22.6 34.5-40.6 48.9-2.5 2-5.5 4.1-6.7 4.8-4.2 2.2-2.3 2.9 4.5 1.6 13.8-2.7 24.3-7.8 33.7-16.6 15.1-14.1 24.4-35.6 26.1-60.2.7-10 1.1-9.8-9.1-6.8zM545.4 257.8c-1.9 1.3-7.6 10.3-10.5 16.8-9.4 20.8-9.3 43 .3 58.6 1.7 2.7 3.3 4.8 3.7 4.8.9 0 3.4-6.2 5.2-13 2.2-8.5 3.6-20.6 3.8-34 .1-7.4.4-13.6.6-13.8 1-1 2.8 12.5 2.7 20.8 0 8-.8 14.4-4.7 36.7-.6 3.4.9 2.8 5-2 13.7-15.8 14.7-39.3 2.8-62.7-5-10-7.4-13.2-8.9-12.2zM946 320.9c-20.9 4.6-36.1 18.5-38.4 35.1l-.6 4.5 2.2-2.9c4.3-5.6 13.8-14.5 19.5-18.4 7.2-4.8 14.3-8.5 15.1-7.8.3.3.1.6-.5.6-3.2 0-27.8 23.2-31.7 30l-1.8 3.2 4.8-.6c13.8-1.8 25.5-7.6 35.3-17.5 6.7-6.7 13.4-18.1 14.7-24.9l.7-3.3-5.9.2c-3.3.1-9.3.9-13.4 1.8zM551.8 342.3c-.8.7-2.6 3-4 5.3-2.5 3.9-3.8 4.8-13.8 9.2-8.9 3.9-20.9 7-33.5 8.7-5.8.8-34 .8-40 .1-2.2-.3-6.6-.8-9.9-1.1-9-.8-19.2-2.4-27-4.1-3.9-.8-8.1-1.7-9.3-2-1.2-.2-6.9-1.5-12.5-2.8-12.3-2.9-29.2-6.2-36.7-7.1-3-.4-6.2-.8-7.2-1-1-.2-4.9-.7-8.6-1-3.7-.4-7.9-.8-9.2-1-15.1-2.4-56.8-2.4-79.1 0-29.7 3.3-68 14.4-93.5 27.2-34.5 17.4-64.9 47.5-77 76.3-3.3 7.8-7.1 21.3-8 27.9-.4 3-.9 6.3-1.1 7.5-.2 1.2-.4 6.2-.5 11.2-.1 10.4 1.1 13.8 6.3 17.7 4.7 3.5 7.5 4.1 10.2 2.3 3.3-2.1 4-7.2 2-14.8-2.3-8.7-2.3-27.1 0-36.3 2.1-8.1 8.2-21.7 12.2-27.2 7.2-9.9 24.8-25.1 38.9-33.5 11.6-7 36.5-17.4 53.5-22.5 9.5-2.8 31.4-8 37.5-8.8 2.2-.3 6-.8 8.5-1.2 2.5-.3 5.4-.7 6.5-.9 2.2-.4 11.2-1.3 19.7-1.9l5.7-.4-7.1 8.7c-18.4 22.6-30.4 46-55.9 109.8-9.2 23.3-10.6 26.2-12.7 27.2-.9.5-5.1 1.3-9.2 1.6-21 1.9-42.9 7.8-60 16.1-36.7 17.9-64.4 51.8-74.4 91.2-2.9 11.5-3.9 20.4-3.8 34.8.1 18.5 3.9 37.4 9.4 46 9 14.2 24 21.2 44.4 20.8 32.9-.7 55.1-19.8 84.4-72.8 4.9-8.9 20.1-39 23.7-47 3-6.5 22.5-53 26.1-62 .9-2.2 2.1-4.3 2.6-4.7 1.2-.8.9-.9 27.6 6 8.5 2.2 17.1 4.2 19 4.6 1.9.3 4.6.9 6 1.2 5.7 1.3 29.8 1.2 38.9-.2 26.4-4.1 48.6-21 49.2-37.6.2-4.8-1.4-8.7-3.6-8.9-.8-.1-2.1-.2-2.7-.3-2.8-.4-5.8 1.9-7.7 5.8-1.1 2.2-3.4 7.1-5.1 10.8-5.1 11.1-13.5 16.6-28.6 18.6-6.4.9-23.3.8-27.9-.1-1.1-.3-4.1-.7-6.6-1.1-16.3-2.4-29.4-5.4-44.4-10.3-4.4-1.4-8.1-2.7-8.3-2.8-1-.8 28.6-71 34-80.5.4-.8 1.1-2.2 1.4-3 .4-.8 4.4-9.2 9-18.5 11.4-23.2 15.6-30.5 24.9-43 8.6-11.5 8.5-11.4 15.7-11 9.2.6 19.9 1.7 30.8 3 10.3 1.3 43.9 5.7 46 6 6.9 1 26.6 3.1 38.5 4.1 29 2.4 58.4-1 81.5-9.4 10.2-3.7 20.9-11.2 23.9-16.9 1.6-3.2 1.4-7.8-.6-10.2-2.1-2.4-6.6-3.4-8.5-1.8zM200 531.8c-.5 1-8.3 19-17.4 40.3-9 21.2-18 42-20 46.3-2 4.2-3.6 7.9-3.6 8.1 0 .8-16.5 33.7-21 42-9.4 17.3-20.6 31.1-28 34.4-11.1 5.1-22.1.7-28.1-11-4.2-8.4-6.1-17.6-6.4-31.1-.9-49.6 26.6-94.8 70.9-116.3 12.1-5.9 24.2-9.7 41.1-13 11.9-2.3 13.9-2.3 12.5.3z"/><path d="M900 368c-1.1 1.1-2 2.3-2.1 2.7 0 .5-.2 2.2-.4 4-.9 8.3-11.1 15.5-27.9 19.7-10.1 2.6-11.8 2.9-23.6 4.5-6.7.9-40.6.7-49.5-.3-2.7-.3-7.9-.8-11.5-1.1-6.6-.6-8.1-.8-15.8-2-2.3-.4-5.2-.8-6.5-1-3.2-.4-13.3-2.2-27.2-5-6.6-1.3-14-2.7-16.5-3.1-2.5-.3-5.4-.8-6.5-1-1.1-.3-3.8-.7-6-.9-2.2-.3-5.1-.7-6.5-1-1.4-.2-5.2-.7-8.5-1-3.3-.3-7.6-.7-9.5-1-10.7-1.4-27.7-2-53.5-2-30.8 0-42.2.6-57.5 3.1-5.2.9-11.1 1.8-13 2-1.9.3-4.3.7-5.2 1-.9.3-2.6.7-3.8.9-12 2.3-35.5 9.7-50 15.8-28.3 11.8-41.4 20-58.1 36.8-21.3 21.3-31.5 43.6-32.4 70.9-.3 9.9.3 12.3 3.4 14 2.7 1.4 10.3-1.4 14-5.2 4.3-4.4 6-8.6 6.5-16.4 1.7-23.5 10.5-42.4 28-59.9 20.8-20.9 42.4-31.8 80.6-40.9 5.8-1.4 12.1-2.8 14-3.1 1.9-.3 6-1 9-1.5 6.1-1 10.3-1.6 20-2.6 8.1-.9 66.7-1.2 68-.4.6.3-1.3 3.1-4 6.1-17.1 18.6-39 58.6-67.6 123.4-.7 1.6-2.5 5.9-3.9 9.5-1.5 3.6-3.3 7.8-4.1 9.5-.7 1.6-9.2 23-18.9 47.5s-18.2 45.8-18.9 47.5c-.8 1.6-4.1 9.7-7.4 18-3.3 8.2-7.3 17.7-8.7 21-1.5 3.3-3.6 8-4.7 10.5-4.1 9.1-17.2 34.7-20.5 40-7.3 11.5-18.8 20.1-27.2 20.3-7.5.2-11.3-1.4-16.6-6.7-5.4-5.4-7.7-10.8-7.8-18.3-.1-13.5 10.2-24.1 25.2-25.7 7.5-.8 10.1-2.7 10.1-7.2 0-3.9-4.3-9.3-7.7-9.5-11-.9-14.4-.2-21.9 4.6-5.2 3.3-11.3 9.3-14.6 14.3-7.1 10.7-9.4 31.5-4.9 43.5 4.2 10.7 12.7 19.1 23.6 23.3 3.7 1.4 7.5 1.9 14.5 1.9 8.2 0 10.5-.4 16.5-2.9 14.8-6.1 24.7-14.2 42.5-35.1 4-4.7 14.3-18.4 18.9-25.3 3.7-5.5 24.1-40 24.1-40.7 0-.2 1.7-3.4 3.9-7.2 11.1-19.6 26.3-50 39.1-77.8 5.3-11.6 15.3-35.2 22-52 13.5-34 35.3-80 47-99 5.2-8.5 13.5-19.7 18.4-24.6 3-3.2 4-3.6 7.3-3.3 5.7.5 12.2 1.4 18.3 2.4 3 .5 7.5 1.2 10 1.5 2.5.3 7 1 10 1.5s7.3 1.2 9.5 1.5c2.2.3 5.4.7 7 1 1.7.3 4.8.7 7 1 2.2.4 5.1.8 6.4 1 1.4.3 5.4.7 9 1.1 3.6.3 7.3.8 8.4 1 8.8 1.7 38 2.3 51.2 1.2 16.9-1.5 40.9-8.1 51.6-14.1 7.8-4.3 15.4-10.8 17.6-15.1 2.4-4.6 2-12.2-.8-15.2s-8.1-3.2-10.9-.4z"/></svg>